<mxfile host="app.diagrams.net" agent="Mozilla/5.0 (Windows NT 10.0; Win64; x64) AppleWebKit/537.36 (KHTML, like Gecko) Chrome/130.0.0.0 Safari/537.36" version="24.8.3">
  <diagram name="Page-1" id="ePTq-XD61lfst5ox2O5w">
    <mxGraphModel dx="1434" dy="738" grid="1" gridSize="10" guides="1" tooltips="1" connect="1" arrows="1" fold="1" page="1" pageScale="1" pageWidth="850" pageHeight="1100" math="0" shadow="0">
      <root>
        <mxCell id="0" />
        <mxCell id="1" parent="0" />
        <mxCell id="-hpoMCpXPhNOghXswdb6-43" style="edgeStyle=none;shape=link;rounded=0;orthogonalLoop=1;jettySize=auto;html=1;exitX=0.25;exitY=1;exitDx=0;exitDy=0;strokeColor=default;align=center;verticalAlign=middle;fontFamily=Helvetica;fontSize=11;fontColor=default;labelBackgroundColor=default;endArrow=none;endFill=0;entryX=0.5;entryY=0;entryDx=0;entryDy=0;" edge="1" parent="1" source="-hpoMCpXPhNOghXswdb6-1" target="-hpoMCpXPhNOghXswdb6-42">
          <mxGeometry relative="1" as="geometry" />
        </mxCell>
        <mxCell id="-hpoMCpXPhNOghXswdb6-1" value="Патник" style="whiteSpace=wrap;html=1;align=center;" vertex="1" parent="1">
          <mxGeometry x="380" y="100" width="100" height="40" as="geometry" />
        </mxCell>
        <mxCell id="-hpoMCpXPhNOghXswdb6-23" style="edgeStyle=none;shape=connector;rounded=0;orthogonalLoop=1;jettySize=auto;html=1;exitX=1;exitY=0;exitDx=0;exitDy=0;entryX=0.25;entryY=1;entryDx=0;entryDy=0;strokeColor=default;align=center;verticalAlign=middle;fontFamily=Helvetica;fontSize=11;fontColor=default;labelBackgroundColor=default;endArrow=none;endFill=0;" edge="1" parent="1" source="-hpoMCpXPhNOghXswdb6-7" target="-hpoMCpXPhNOghXswdb6-1">
          <mxGeometry relative="1" as="geometry" />
        </mxCell>
        <mxCell id="-hpoMCpXPhNOghXswdb6-7" value="Име" style="ellipse;whiteSpace=wrap;html=1;align=center;fontFamily=Helvetica;fontSize=11;fontColor=default;labelBackgroundColor=default;" vertex="1" parent="1">
          <mxGeometry x="280" y="170" width="100" height="30" as="geometry" />
        </mxCell>
        <mxCell id="-hpoMCpXPhNOghXswdb6-24" style="edgeStyle=none;shape=connector;rounded=0;orthogonalLoop=1;jettySize=auto;html=1;exitX=0.5;exitY=0;exitDx=0;exitDy=0;entryX=0.5;entryY=1;entryDx=0;entryDy=0;strokeColor=default;align=center;verticalAlign=middle;fontFamily=Helvetica;fontSize=11;fontColor=default;labelBackgroundColor=default;endArrow=none;endFill=0;" edge="1" parent="1" source="-hpoMCpXPhNOghXswdb6-8" target="-hpoMCpXPhNOghXswdb6-1">
          <mxGeometry relative="1" as="geometry" />
        </mxCell>
        <mxCell id="-hpoMCpXPhNOghXswdb6-8" value="Презиме" style="ellipse;whiteSpace=wrap;html=1;align=center;fontFamily=Helvetica;fontSize=11;fontColor=default;labelBackgroundColor=default;" vertex="1" parent="1">
          <mxGeometry x="390" y="170" width="100" height="30" as="geometry" />
        </mxCell>
        <mxCell id="-hpoMCpXPhNOghXswdb6-10" value="&lt;u&gt;Бр.Пасош&lt;/u&gt;" style="ellipse;whiteSpace=wrap;html=1;align=center;fontFamily=Helvetica;fontSize=11;fontColor=default;labelBackgroundColor=default;" vertex="1" parent="1">
          <mxGeometry x="500" y="170" width="100" height="30" as="geometry" />
        </mxCell>
        <mxCell id="-hpoMCpXPhNOghXswdb6-26" style="edgeStyle=none;shape=connector;rounded=0;orthogonalLoop=1;jettySize=auto;html=1;exitX=0;exitY=0;exitDx=0;exitDy=0;strokeColor=default;align=center;verticalAlign=middle;fontFamily=Helvetica;fontSize=11;fontColor=default;labelBackgroundColor=default;endArrow=none;endFill=0;" edge="1" parent="1" source="-hpoMCpXPhNOghXswdb6-11" target="-hpoMCpXPhNOghXswdb6-1">
          <mxGeometry relative="1" as="geometry" />
        </mxCell>
        <mxCell id="-hpoMCpXPhNOghXswdb6-11" value="адреса" style="ellipse;whiteSpace=wrap;html=1;align=center;fontFamily=Helvetica;fontSize=11;fontColor=default;labelBackgroundColor=default;" vertex="1" parent="1">
          <mxGeometry x="620" y="170" width="100" height="30" as="geometry" />
        </mxCell>
        <mxCell id="-hpoMCpXPhNOghXswdb6-28" style="edgeStyle=none;shape=connector;rounded=0;orthogonalLoop=1;jettySize=auto;html=1;exitX=0;exitY=0;exitDx=0;exitDy=0;strokeColor=default;align=center;verticalAlign=middle;fontFamily=Helvetica;fontSize=11;fontColor=default;labelBackgroundColor=default;endArrow=none;endFill=0;" edge="1" parent="1" source="-hpoMCpXPhNOghXswdb6-12" target="-hpoMCpXPhNOghXswdb6-11">
          <mxGeometry relative="1" as="geometry" />
        </mxCell>
        <mxCell id="-hpoMCpXPhNOghXswdb6-12" value="улица" style="ellipse;whiteSpace=wrap;html=1;align=center;fontFamily=Helvetica;fontSize=11;fontColor=default;labelBackgroundColor=default;" vertex="1" parent="1">
          <mxGeometry x="650" y="230" width="100" height="30" as="geometry" />
        </mxCell>
        <mxCell id="-hpoMCpXPhNOghXswdb6-13" value="број" style="ellipse;whiteSpace=wrap;html=1;align=center;fontFamily=Helvetica;fontSize=11;fontColor=default;labelBackgroundColor=default;" vertex="1" parent="1">
          <mxGeometry x="760" y="230" width="100" height="30" as="geometry" />
        </mxCell>
        <mxCell id="-hpoMCpXPhNOghXswdb6-27" style="edgeStyle=none;shape=connector;rounded=0;orthogonalLoop=1;jettySize=auto;html=1;exitX=0;exitY=0;exitDx=0;exitDy=0;strokeColor=default;align=center;verticalAlign=middle;fontFamily=Helvetica;fontSize=11;fontColor=default;labelBackgroundColor=default;endArrow=none;endFill=0;" edge="1" parent="1" source="-hpoMCpXPhNOghXswdb6-14" target="-hpoMCpXPhNOghXswdb6-11">
          <mxGeometry relative="1" as="geometry" />
        </mxCell>
        <mxCell id="-hpoMCpXPhNOghXswdb6-14" value="град" style="ellipse;whiteSpace=wrap;html=1;align=center;fontFamily=Helvetica;fontSize=11;fontColor=default;labelBackgroundColor=default;" vertex="1" parent="1">
          <mxGeometry x="540" y="230" width="100" height="30" as="geometry" />
        </mxCell>
        <mxCell id="-hpoMCpXPhNOghXswdb6-22" style="edgeStyle=none;shape=connector;rounded=0;orthogonalLoop=1;jettySize=auto;html=1;exitX=1;exitY=0;exitDx=0;exitDy=0;entryX=0;entryY=0.75;entryDx=0;entryDy=0;strokeColor=default;align=center;verticalAlign=middle;fontFamily=Helvetica;fontSize=11;fontColor=default;labelBackgroundColor=default;endArrow=none;endFill=0;" edge="1" parent="1" source="-hpoMCpXPhNOghXswdb6-15" target="-hpoMCpXPhNOghXswdb6-1">
          <mxGeometry relative="1" as="geometry" />
        </mxCell>
        <mxCell id="-hpoMCpXPhNOghXswdb6-15" value="телефон" style="ellipse;whiteSpace=wrap;html=1;align=center;fontFamily=Helvetica;fontSize=11;fontColor=default;labelBackgroundColor=default;" vertex="1" parent="1">
          <mxGeometry x="170" y="170" width="100" height="30" as="geometry" />
        </mxCell>
        <mxCell id="-hpoMCpXPhNOghXswdb6-25" style="edgeStyle=none;shape=connector;rounded=0;orthogonalLoop=1;jettySize=auto;html=1;exitX=0;exitY=0;exitDx=0;exitDy=0;entryX=0.82;entryY=0.9;entryDx=0;entryDy=0;entryPerimeter=0;strokeColor=default;align=center;verticalAlign=middle;fontFamily=Helvetica;fontSize=11;fontColor=default;labelBackgroundColor=default;endArrow=none;endFill=0;" edge="1" parent="1" source="-hpoMCpXPhNOghXswdb6-10" target="-hpoMCpXPhNOghXswdb6-1">
          <mxGeometry relative="1" as="geometry" />
        </mxCell>
        <mxCell id="-hpoMCpXPhNOghXswdb6-29" style="edgeStyle=none;shape=connector;rounded=0;orthogonalLoop=1;jettySize=auto;html=1;exitX=0;exitY=0;exitDx=0;exitDy=0;entryX=0.74;entryY=0.9;entryDx=0;entryDy=0;entryPerimeter=0;strokeColor=default;align=center;verticalAlign=middle;fontFamily=Helvetica;fontSize=11;fontColor=default;labelBackgroundColor=default;endArrow=none;endFill=0;" edge="1" parent="1" source="-hpoMCpXPhNOghXswdb6-13" target="-hpoMCpXPhNOghXswdb6-11">
          <mxGeometry relative="1" as="geometry" />
        </mxCell>
        <mxCell id="-hpoMCpXPhNOghXswdb6-102" style="edgeStyle=none;shape=connector;rounded=0;orthogonalLoop=1;jettySize=auto;html=1;exitX=0.5;exitY=0;exitDx=0;exitDy=0;entryX=0.5;entryY=1;entryDx=0;entryDy=0;strokeColor=default;align=center;verticalAlign=middle;fontFamily=Helvetica;fontSize=11;fontColor=default;labelBackgroundColor=default;endArrow=none;endFill=0;" edge="1" parent="1" source="-hpoMCpXPhNOghXswdb6-30" target="-hpoMCpXPhNOghXswdb6-97">
          <mxGeometry relative="1" as="geometry" />
        </mxCell>
        <mxCell id="-hpoMCpXPhNOghXswdb6-30" value="Лет" style="whiteSpace=wrap;html=1;align=center;" vertex="1" parent="1">
          <mxGeometry x="270" y="472.5" width="100" height="40" as="geometry" />
        </mxCell>
        <mxCell id="-hpoMCpXPhNOghXswdb6-36" style="edgeStyle=none;shape=connector;rounded=0;orthogonalLoop=1;jettySize=auto;html=1;exitX=0;exitY=0;exitDx=0;exitDy=0;entryX=0;entryY=0.5;entryDx=0;entryDy=0;strokeColor=default;align=center;verticalAlign=middle;fontFamily=Helvetica;fontSize=11;fontColor=default;labelBackgroundColor=default;endArrow=none;endFill=0;" edge="1" parent="1" source="-hpoMCpXPhNOghXswdb6-31" target="-hpoMCpXPhNOghXswdb6-30">
          <mxGeometry relative="1" as="geometry" />
        </mxCell>
        <mxCell id="-hpoMCpXPhNOghXswdb6-31" value="&lt;u style=&quot;&quot;&gt;Бр.лет&lt;/u&gt;" style="ellipse;whiteSpace=wrap;html=1;align=center;fontFamily=Helvetica;fontSize=11;fontColor=default;labelBackgroundColor=default;" vertex="1" parent="1">
          <mxGeometry x="100" y="530" width="100" height="30" as="geometry" />
        </mxCell>
        <mxCell id="-hpoMCpXPhNOghXswdb6-37" style="edgeStyle=none;shape=connector;rounded=0;orthogonalLoop=1;jettySize=auto;html=1;exitX=0;exitY=0;exitDx=0;exitDy=0;strokeColor=default;align=center;verticalAlign=middle;fontFamily=Helvetica;fontSize=11;fontColor=default;labelBackgroundColor=default;endArrow=none;endFill=0;" edge="1" parent="1" source="-hpoMCpXPhNOghXswdb6-32" target="-hpoMCpXPhNOghXswdb6-30">
          <mxGeometry relative="1" as="geometry" />
        </mxCell>
        <mxCell id="-hpoMCpXPhNOghXswdb6-32" value="град-тргнување" style="ellipse;whiteSpace=wrap;html=1;align=center;fontFamily=Helvetica;fontSize=11;fontColor=default;labelBackgroundColor=default;" vertex="1" parent="1">
          <mxGeometry x="220" y="540" width="100" height="30" as="geometry" />
        </mxCell>
        <mxCell id="-hpoMCpXPhNOghXswdb6-38" style="edgeStyle=none;shape=connector;rounded=0;orthogonalLoop=1;jettySize=auto;html=1;exitX=0;exitY=0;exitDx=0;exitDy=0;strokeColor=default;align=center;verticalAlign=middle;fontFamily=Helvetica;fontSize=11;fontColor=default;labelBackgroundColor=default;endArrow=none;endFill=0;" edge="1" parent="1" source="-hpoMCpXPhNOghXswdb6-33" target="-hpoMCpXPhNOghXswdb6-30">
          <mxGeometry relative="1" as="geometry" />
        </mxCell>
        <mxCell id="-hpoMCpXPhNOghXswdb6-33" value="град-слетување" style="ellipse;whiteSpace=wrap;html=1;align=center;fontFamily=Helvetica;fontSize=11;fontColor=default;labelBackgroundColor=default;" vertex="1" parent="1">
          <mxGeometry x="335" y="540" width="100" height="30" as="geometry" />
        </mxCell>
        <mxCell id="-hpoMCpXPhNOghXswdb6-40" style="edgeStyle=none;shape=connector;rounded=0;orthogonalLoop=1;jettySize=auto;html=1;exitX=0;exitY=0;exitDx=0;exitDy=0;strokeColor=default;align=center;verticalAlign=middle;fontFamily=Helvetica;fontSize=11;fontColor=default;labelBackgroundColor=default;endArrow=none;endFill=0;" edge="1" parent="1" source="-hpoMCpXPhNOghXswdb6-34" target="-hpoMCpXPhNOghXswdb6-30">
          <mxGeometry relative="1" as="geometry" />
        </mxCell>
        <mxCell id="-hpoMCpXPhNOghXswdb6-34" value="време-полетување" style="ellipse;whiteSpace=wrap;html=1;align=center;fontFamily=Helvetica;fontSize=11;fontColor=default;labelBackgroundColor=default;" vertex="1" parent="1">
          <mxGeometry x="440" y="530" width="100" height="30" as="geometry" />
        </mxCell>
        <mxCell id="-hpoMCpXPhNOghXswdb6-41" style="edgeStyle=none;shape=connector;rounded=0;orthogonalLoop=1;jettySize=auto;html=1;exitX=0;exitY=0;exitDx=0;exitDy=0;entryX=1;entryY=0.25;entryDx=0;entryDy=0;strokeColor=default;align=center;verticalAlign=middle;fontFamily=Helvetica;fontSize=11;fontColor=default;labelBackgroundColor=default;endArrow=none;endFill=0;" edge="1" parent="1" source="-hpoMCpXPhNOghXswdb6-35" target="-hpoMCpXPhNOghXswdb6-30">
          <mxGeometry relative="1" as="geometry" />
        </mxCell>
        <mxCell id="-hpoMCpXPhNOghXswdb6-35" value="време-слетување" style="ellipse;whiteSpace=wrap;html=1;align=center;fontFamily=Helvetica;fontSize=11;fontColor=default;labelBackgroundColor=default;" vertex="1" parent="1">
          <mxGeometry x="560" y="530" width="100" height="30" as="geometry" />
        </mxCell>
        <mxCell id="-hpoMCpXPhNOghXswdb6-48" style="edgeStyle=none;shape=connector;rounded=0;orthogonalLoop=1;jettySize=auto;html=1;exitX=1;exitY=1;exitDx=0;exitDy=0;strokeColor=default;align=center;verticalAlign=middle;fontFamily=Helvetica;fontSize=11;fontColor=default;labelBackgroundColor=default;endArrow=none;endFill=0;" edge="1" parent="1" source="-hpoMCpXPhNOghXswdb6-42" target="-hpoMCpXPhNOghXswdb6-49">
          <mxGeometry relative="1" as="geometry">
            <mxPoint x="490" y="320" as="targetPoint" />
          </mxGeometry>
        </mxCell>
        <mxCell id="-hpoMCpXPhNOghXswdb6-42" value="лета во лет" style="shape=rhombus;perimeter=rhombusPerimeter;whiteSpace=wrap;html=1;align=center;fontFamily=Helvetica;fontSize=11;fontColor=default;labelBackgroundColor=default;" vertex="1" parent="1">
          <mxGeometry x="290" y="250" width="120" height="60" as="geometry" />
        </mxCell>
        <mxCell id="-hpoMCpXPhNOghXswdb6-45" value="М" style="text;html=1;align=center;verticalAlign=middle;resizable=0;points=[];autosize=1;strokeColor=none;fillColor=none;fontFamily=Helvetica;fontSize=11;fontColor=default;labelBackgroundColor=default;" vertex="1" parent="1">
          <mxGeometry x="365" y="310" width="30" height="30" as="geometry" />
        </mxCell>
        <mxCell id="-hpoMCpXPhNOghXswdb6-47" value="N" style="text;html=1;align=center;verticalAlign=middle;resizable=0;points=[];autosize=1;strokeColor=none;fillColor=none;fontFamily=Helvetica;fontSize=11;fontColor=default;labelBackgroundColor=default;" vertex="1" parent="1">
          <mxGeometry x="355" y="218" width="30" height="30" as="geometry" />
        </mxCell>
        <mxCell id="-hpoMCpXPhNOghXswdb6-49" value="датум резервација" style="ellipse;whiteSpace=wrap;html=1;align=center;fontFamily=Helvetica;fontSize=11;fontColor=default;labelBackgroundColor=default;" vertex="1" parent="1">
          <mxGeometry x="440" y="300" width="120" height="50" as="geometry" />
        </mxCell>
        <mxCell id="-hpoMCpXPhNOghXswdb6-51" style="edgeStyle=none;shape=connector;rounded=0;orthogonalLoop=1;jettySize=auto;html=1;exitX=0;exitY=1;exitDx=0;exitDy=0;strokeColor=default;align=center;verticalAlign=middle;fontFamily=Helvetica;fontSize=11;fontColor=default;labelBackgroundColor=default;endArrow=none;endFill=0;" edge="1" parent="1" source="-hpoMCpXPhNOghXswdb6-50" target="-hpoMCpXPhNOghXswdb6-52">
          <mxGeometry relative="1" as="geometry">
            <mxPoint x="780" y="500" as="targetPoint" />
          </mxGeometry>
        </mxCell>
        <mxCell id="-hpoMCpXPhNOghXswdb6-53" style="edgeStyle=none;shape=connector;rounded=0;orthogonalLoop=1;jettySize=auto;html=1;exitX=0.25;exitY=1;exitDx=0;exitDy=0;strokeColor=default;align=center;verticalAlign=middle;fontFamily=Helvetica;fontSize=11;fontColor=default;labelBackgroundColor=default;endArrow=none;endFill=0;" edge="1" parent="1" source="-hpoMCpXPhNOghXswdb6-50" target="-hpoMCpXPhNOghXswdb6-54">
          <mxGeometry relative="1" as="geometry">
            <mxPoint x="865" y="490" as="targetPoint" />
          </mxGeometry>
        </mxCell>
        <mxCell id="-hpoMCpXPhNOghXswdb6-59" style="edgeStyle=none;shape=connector;rounded=0;orthogonalLoop=1;jettySize=auto;html=1;exitX=0.75;exitY=1;exitDx=0;exitDy=0;strokeColor=default;align=center;verticalAlign=middle;fontFamily=Helvetica;fontSize=11;fontColor=default;labelBackgroundColor=default;endArrow=none;endFill=0;" edge="1" parent="1" source="-hpoMCpXPhNOghXswdb6-50" target="-hpoMCpXPhNOghXswdb6-57">
          <mxGeometry relative="1" as="geometry" />
        </mxCell>
        <mxCell id="-hpoMCpXPhNOghXswdb6-60" style="edgeStyle=none;shape=connector;rounded=0;orthogonalLoop=1;jettySize=auto;html=1;exitX=1;exitY=0.5;exitDx=0;exitDy=0;strokeColor=default;align=center;verticalAlign=middle;fontFamily=Helvetica;fontSize=11;fontColor=default;labelBackgroundColor=default;endArrow=none;endFill=0;" edge="1" parent="1" source="-hpoMCpXPhNOghXswdb6-50" target="-hpoMCpXPhNOghXswdb6-58">
          <mxGeometry relative="1" as="geometry" />
        </mxCell>
        <mxCell id="-hpoMCpXPhNOghXswdb6-62" style="edgeStyle=none;shape=connector;rounded=0;orthogonalLoop=1;jettySize=auto;html=1;exitX=0.5;exitY=1;exitDx=0;exitDy=0;entryX=0.5;entryY=0;entryDx=0;entryDy=0;strokeColor=default;align=center;verticalAlign=middle;fontFamily=Helvetica;fontSize=11;fontColor=default;labelBackgroundColor=default;endArrow=none;endFill=0;" edge="1" parent="1" source="-hpoMCpXPhNOghXswdb6-50" target="-hpoMCpXPhNOghXswdb6-61">
          <mxGeometry relative="1" as="geometry" />
        </mxCell>
        <mxCell id="-hpoMCpXPhNOghXswdb6-50" value="Вработен" style="whiteSpace=wrap;html=1;align=center;" vertex="1" parent="1">
          <mxGeometry x="840" y="380" width="100" height="40" as="geometry" />
        </mxCell>
        <mxCell id="-hpoMCpXPhNOghXswdb6-52" value="&lt;u&gt;Шифра&lt;/u&gt;" style="ellipse;whiteSpace=wrap;html=1;align=center;fontFamily=Helvetica;fontSize=11;fontColor=default;labelBackgroundColor=default;" vertex="1" parent="1">
          <mxGeometry x="830" y="290" width="100" height="40" as="geometry" />
        </mxCell>
        <mxCell id="-hpoMCpXPhNOghXswdb6-54" value="име" style="ellipse;whiteSpace=wrap;html=1;align=center;fontFamily=Helvetica;fontSize=11;fontColor=default;labelBackgroundColor=default;" vertex="1" parent="1">
          <mxGeometry x="930" y="290" width="100" height="40" as="geometry" />
        </mxCell>
        <mxCell id="-hpoMCpXPhNOghXswdb6-57" value="презиме" style="ellipse;whiteSpace=wrap;html=1;align=center;fontFamily=Helvetica;fontSize=11;fontColor=default;labelBackgroundColor=default;" vertex="1" parent="1">
          <mxGeometry x="1000" y="390" width="100" height="40" as="geometry" />
        </mxCell>
        <mxCell id="-hpoMCpXPhNOghXswdb6-58" value="плата" style="ellipse;whiteSpace=wrap;html=1;align=center;fontFamily=Helvetica;fontSize=11;fontColor=default;labelBackgroundColor=default;" vertex="1" parent="1">
          <mxGeometry x="1020" y="330" width="100" height="40" as="geometry" />
        </mxCell>
        <mxCell id="-hpoMCpXPhNOghXswdb6-79" value="" style="edgeStyle=none;shape=link;rounded=0;orthogonalLoop=1;jettySize=auto;html=1;strokeColor=default;align=center;verticalAlign=middle;fontFamily=Helvetica;fontSize=11;fontColor=default;labelBackgroundColor=default;endArrow=none;endFill=0;" edge="1" parent="1" source="-hpoMCpXPhNOghXswdb6-61" target="-hpoMCpXPhNOghXswdb6-78">
          <mxGeometry relative="1" as="geometry" />
        </mxCell>
        <mxCell id="-hpoMCpXPhNOghXswdb6-61" value="Пилот" style="whiteSpace=wrap;html=1;align=center;fontFamily=Helvetica;fontSize=11;fontColor=default;labelBackgroundColor=default;" vertex="1" parent="1">
          <mxGeometry x="840" y="530" width="100" height="40" as="geometry" />
        </mxCell>
        <mxCell id="-hpoMCpXPhNOghXswdb6-63" value="" style="shape=requiredInterface;html=1;verticalLabelPosition=bottom;sketch=0;fontFamily=Helvetica;fontSize=11;fontColor=default;labelBackgroundColor=default;rotation=90;" vertex="1" parent="1">
          <mxGeometry x="877.5" y="452.5" width="25" height="20" as="geometry" />
        </mxCell>
        <mxCell id="-hpoMCpXPhNOghXswdb6-68" style="edgeStyle=none;shape=connector;rounded=0;orthogonalLoop=1;jettySize=auto;html=1;exitX=1;exitY=0.5;exitDx=0;exitDy=0;entryX=0;entryY=0.5;entryDx=0;entryDy=0;strokeColor=default;align=center;verticalAlign=middle;fontFamily=Helvetica;fontSize=11;fontColor=default;labelBackgroundColor=default;endArrow=none;endFill=0;" edge="1" parent="1" source="-hpoMCpXPhNOghXswdb6-66" target="-hpoMCpXPhNOghXswdb6-50">
          <mxGeometry relative="1" as="geometry" />
        </mxCell>
        <mxCell id="-hpoMCpXPhNOghXswdb6-66" value="учествува на лет" style="shape=rhombus;perimeter=rhombusPerimeter;whiteSpace=wrap;html=1;align=center;fontFamily=Helvetica;fontSize=11;fontColor=default;labelBackgroundColor=default;" vertex="1" parent="1">
          <mxGeometry x="610" y="360" width="120" height="60" as="geometry" />
        </mxCell>
        <mxCell id="-hpoMCpXPhNOghXswdb6-69" value="M" style="text;html=1;align=center;verticalAlign=middle;resizable=0;points=[];autosize=1;strokeColor=none;fillColor=none;fontFamily=Helvetica;fontSize=11;fontColor=default;labelBackgroundColor=default;" vertex="1" parent="1">
          <mxGeometry x="575" y="360" width="30" height="30" as="geometry" />
        </mxCell>
        <mxCell id="-hpoMCpXPhNOghXswdb6-70" value="N" style="text;html=1;align=center;verticalAlign=middle;resizable=0;points=[];autosize=1;strokeColor=none;fillColor=none;fontFamily=Helvetica;fontSize=11;fontColor=default;labelBackgroundColor=default;" vertex="1" parent="1">
          <mxGeometry x="730" y="360" width="30" height="30" as="geometry" />
        </mxCell>
        <mxCell id="-hpoMCpXPhNOghXswdb6-80" value="" style="edgeStyle=none;shape=link;rounded=0;orthogonalLoop=1;jettySize=auto;html=1;strokeColor=default;align=center;verticalAlign=middle;fontFamily=Helvetica;fontSize=11;fontColor=default;labelBackgroundColor=default;endArrow=none;endFill=0;" edge="1" parent="1" source="-hpoMCpXPhNOghXswdb6-71" target="-hpoMCpXPhNOghXswdb6-78">
          <mxGeometry relative="1" as="geometry" />
        </mxCell>
        <mxCell id="-hpoMCpXPhNOghXswdb6-71" value="Авион" style="whiteSpace=wrap;html=1;align=center;fontFamily=Helvetica;fontSize=11;fontColor=default;labelBackgroundColor=default;" vertex="1" parent="1">
          <mxGeometry x="690" y="610" width="100" height="40" as="geometry" />
        </mxCell>
        <mxCell id="-hpoMCpXPhNOghXswdb6-75" style="edgeStyle=none;shape=connector;rounded=0;orthogonalLoop=1;jettySize=auto;html=1;exitX=0.5;exitY=0;exitDx=0;exitDy=0;strokeColor=default;align=center;verticalAlign=middle;fontFamily=Helvetica;fontSize=11;fontColor=default;labelBackgroundColor=default;endArrow=none;endFill=0;" edge="1" parent="1" source="-hpoMCpXPhNOghXswdb6-72" target="-hpoMCpXPhNOghXswdb6-71">
          <mxGeometry relative="1" as="geometry" />
        </mxCell>
        <mxCell id="-hpoMCpXPhNOghXswdb6-72" value="&lt;u&gt;Производител&lt;/u&gt;" style="ellipse;whiteSpace=wrap;html=1;align=center;fontFamily=Helvetica;fontSize=11;fontColor=default;labelBackgroundColor=default;" vertex="1" parent="1">
          <mxGeometry x="590" y="660" width="100" height="40" as="geometry" />
        </mxCell>
        <mxCell id="-hpoMCpXPhNOghXswdb6-76" style="edgeStyle=none;shape=connector;rounded=0;orthogonalLoop=1;jettySize=auto;html=1;exitX=0;exitY=0;exitDx=0;exitDy=0;strokeColor=default;align=center;verticalAlign=middle;fontFamily=Helvetica;fontSize=11;fontColor=default;labelBackgroundColor=default;endArrow=none;endFill=0;" edge="1" parent="1" source="-hpoMCpXPhNOghXswdb6-73" target="-hpoMCpXPhNOghXswdb6-71">
          <mxGeometry relative="1" as="geometry" />
        </mxCell>
        <mxCell id="-hpoMCpXPhNOghXswdb6-73" value="&lt;u&gt;Број&lt;/u&gt;" style="ellipse;whiteSpace=wrap;html=1;align=center;fontFamily=Helvetica;fontSize=11;fontColor=default;labelBackgroundColor=default;" vertex="1" parent="1">
          <mxGeometry x="695" y="660" width="100" height="40" as="geometry" />
        </mxCell>
        <mxCell id="-hpoMCpXPhNOghXswdb6-77" style="edgeStyle=none;shape=connector;rounded=0;orthogonalLoop=1;jettySize=auto;html=1;exitX=0;exitY=0;exitDx=0;exitDy=0;entryX=0.75;entryY=1;entryDx=0;entryDy=0;strokeColor=default;align=center;verticalAlign=middle;fontFamily=Helvetica;fontSize=11;fontColor=default;labelBackgroundColor=default;endArrow=none;endFill=0;" edge="1" parent="1" source="-hpoMCpXPhNOghXswdb6-74" target="-hpoMCpXPhNOghXswdb6-71">
          <mxGeometry relative="1" as="geometry" />
        </mxCell>
        <mxCell id="-hpoMCpXPhNOghXswdb6-74" value="Име модел" style="ellipse;whiteSpace=wrap;html=1;align=center;fontFamily=Helvetica;fontSize=11;fontColor=default;labelBackgroundColor=default;" vertex="1" parent="1">
          <mxGeometry x="802.5" y="660" width="100" height="40" as="geometry" />
        </mxCell>
        <mxCell id="-hpoMCpXPhNOghXswdb6-78" value="знае да управува со" style="shape=rhombus;perimeter=rhombusPerimeter;whiteSpace=wrap;html=1;align=center;fontFamily=Helvetica;fontSize=11;fontColor=default;labelBackgroundColor=default;" vertex="1" parent="1">
          <mxGeometry x="680" y="520" width="120" height="60" as="geometry" />
        </mxCell>
        <mxCell id="-hpoMCpXPhNOghXswdb6-83" value="" style="edgeStyle=none;shape=connector;rounded=0;orthogonalLoop=1;jettySize=auto;html=1;strokeColor=default;align=center;verticalAlign=middle;fontFamily=Helvetica;fontSize=11;fontColor=default;labelBackgroundColor=default;endArrow=none;endFill=0;" edge="1" parent="1" source="-hpoMCpXPhNOghXswdb6-81" target="-hpoMCpXPhNOghXswdb6-71">
          <mxGeometry relative="1" as="geometry" />
        </mxCell>
        <mxCell id="-hpoMCpXPhNOghXswdb6-81" value="М" style="text;html=1;align=center;verticalAlign=middle;resizable=0;points=[];autosize=1;strokeColor=none;fillColor=none;fontFamily=Helvetica;fontSize=11;fontColor=default;labelBackgroundColor=default;" vertex="1" parent="1">
          <mxGeometry x="745" y="578" width="30" height="30" as="geometry" />
        </mxCell>
        <mxCell id="-hpoMCpXPhNOghXswdb6-82" value="N" style="text;html=1;align=center;verticalAlign=middle;resizable=0;points=[];autosize=1;strokeColor=none;fillColor=none;fontFamily=Helvetica;fontSize=11;fontColor=default;labelBackgroundColor=default;" vertex="1" parent="1">
          <mxGeometry x="790" y="520" width="30" height="30" as="geometry" />
        </mxCell>
        <mxCell id="-hpoMCpXPhNOghXswdb6-85" value="Состојба на исправност" style="ellipse;whiteSpace=wrap;html=1;align=center;fontFamily=Helvetica;fontSize=11;fontColor=default;labelBackgroundColor=default;" vertex="1" parent="1">
          <mxGeometry x="255" y="660" width="110" height="50" as="geometry" />
        </mxCell>
        <mxCell id="-hpoMCpXPhNOghXswdb6-86" style="edgeStyle=none;shape=connector;rounded=0;orthogonalLoop=1;jettySize=auto;html=1;exitX=0.5;exitY=0;exitDx=0;exitDy=0;entryX=0;entryY=0.75;entryDx=0;entryDy=0;strokeColor=default;align=center;verticalAlign=middle;fontFamily=Helvetica;fontSize=11;fontColor=default;labelBackgroundColor=default;endArrow=none;endFill=0;" edge="1" parent="1" source="-hpoMCpXPhNOghXswdb6-85" target="-hpoMCpXPhNOghXswdb6-89">
          <mxGeometry relative="1" as="geometry">
            <mxPoint x="383.4000000000001" y="644.8" as="targetPoint" />
          </mxGeometry>
        </mxCell>
        <mxCell id="-hpoMCpXPhNOghXswdb6-88" style="edgeStyle=none;shape=connector;rounded=0;orthogonalLoop=1;jettySize=auto;html=1;strokeColor=default;align=center;verticalAlign=middle;fontFamily=Helvetica;fontSize=11;fontColor=default;labelBackgroundColor=default;endArrow=none;endFill=0;entryX=0.448;entryY=0.956;entryDx=0;entryDy=0;entryPerimeter=0;" edge="1" parent="1" source="-hpoMCpXPhNOghXswdb6-87" target="-hpoMCpXPhNOghXswdb6-89">
          <mxGeometry relative="1" as="geometry">
            <mxPoint x="425.0000000000002" y="648" as="targetPoint" />
          </mxGeometry>
        </mxCell>
        <mxCell id="-hpoMCpXPhNOghXswdb6-87" value="&lt;u&gt;Сериски број&lt;/u&gt;" style="ellipse;whiteSpace=wrap;html=1;align=center;fontFamily=Helvetica;fontSize=11;fontColor=default;labelBackgroundColor=default;" vertex="1" parent="1">
          <mxGeometry x="375" y="680" width="100" height="40" as="geometry" />
        </mxCell>
        <mxCell id="-hpoMCpXPhNOghXswdb6-89" value="Авион на компанијата" style="shape=ext;margin=3;double=1;whiteSpace=wrap;html=1;align=center;fontFamily=Helvetica;fontSize=11;fontColor=default;labelBackgroundColor=default;" vertex="1" parent="1">
          <mxGeometry x="365" y="600" width="100" height="40" as="geometry" />
        </mxCell>
        <mxCell id="-hpoMCpXPhNOghXswdb6-91" value="" style="edgeStyle=none;shape=connector;rounded=0;orthogonalLoop=1;jettySize=auto;html=1;strokeColor=default;align=center;verticalAlign=middle;fontFamily=Helvetica;fontSize=11;fontColor=default;labelBackgroundColor=default;endArrow=none;endFill=0;" edge="1" parent="1" source="-hpoMCpXPhNOghXswdb6-90" target="-hpoMCpXPhNOghXswdb6-89">
          <mxGeometry relative="1" as="geometry" />
        </mxCell>
        <mxCell id="-hpoMCpXPhNOghXswdb6-90" value="Број седишта" style="ellipse;whiteSpace=wrap;html=1;align=center;fontFamily=Helvetica;fontSize=11;fontColor=default;labelBackgroundColor=default;" vertex="1" parent="1">
          <mxGeometry x="235" y="590" width="100" height="40" as="geometry" />
        </mxCell>
        <mxCell id="-hpoMCpXPhNOghXswdb6-93" value="" style="edgeStyle=none;shape=connector;rounded=0;orthogonalLoop=1;jettySize=auto;html=1;strokeColor=default;align=center;verticalAlign=middle;fontFamily=Helvetica;fontSize=11;fontColor=default;labelBackgroundColor=default;endArrow=none;endFill=0;" edge="1" parent="1" source="-hpoMCpXPhNOghXswdb6-92" target="-hpoMCpXPhNOghXswdb6-71">
          <mxGeometry relative="1" as="geometry" />
        </mxCell>
        <mxCell id="-hpoMCpXPhNOghXswdb6-94" value="" style="edgeStyle=none;shape=link;rounded=0;orthogonalLoop=1;jettySize=auto;html=1;strokeColor=default;align=center;verticalAlign=middle;fontFamily=Helvetica;fontSize=11;fontColor=default;labelBackgroundColor=default;endArrow=none;endFill=0;" edge="1" parent="1" source="-hpoMCpXPhNOghXswdb6-92" target="-hpoMCpXPhNOghXswdb6-89">
          <mxGeometry relative="1" as="geometry" />
        </mxCell>
        <mxCell id="-hpoMCpXPhNOghXswdb6-92" value="е тип" style="shape=rhombus;double=1;perimeter=rhombusPerimeter;whiteSpace=wrap;html=1;align=center;fontFamily=Helvetica;fontSize=11;fontColor=default;labelBackgroundColor=default;" vertex="1" parent="1">
          <mxGeometry x="500" y="590" width="120" height="60" as="geometry" />
        </mxCell>
        <mxCell id="-hpoMCpXPhNOghXswdb6-95" value="1" style="text;html=1;align=center;verticalAlign=middle;resizable=0;points=[];autosize=1;strokeColor=none;fillColor=none;fontFamily=Helvetica;fontSize=11;fontColor=default;labelBackgroundColor=default;" vertex="1" parent="1">
          <mxGeometry x="610" y="600" width="30" height="30" as="geometry" />
        </mxCell>
        <mxCell id="-hpoMCpXPhNOghXswdb6-96" value="М" style="text;html=1;align=center;verticalAlign=middle;resizable=0;points=[];autosize=1;strokeColor=none;fillColor=none;fontFamily=Helvetica;fontSize=11;fontColor=default;labelBackgroundColor=default;" vertex="1" parent="1">
          <mxGeometry x="480" y="595" width="30" height="30" as="geometry" />
        </mxCell>
        <mxCell id="-hpoMCpXPhNOghXswdb6-97" value="е од" style="shape=rhombus;double=1;perimeter=rhombusPerimeter;whiteSpace=wrap;html=1;align=center;fontFamily=Helvetica;fontSize=11;fontColor=default;labelBackgroundColor=default;" vertex="1" parent="1">
          <mxGeometry x="255" y="392.5" width="120" height="60" as="geometry" />
        </mxCell>
        <mxCell id="-hpoMCpXPhNOghXswdb6-100" value="" style="edgeStyle=none;shape=connector;rounded=0;orthogonalLoop=1;jettySize=auto;html=1;strokeColor=default;align=center;verticalAlign=middle;fontFamily=Helvetica;fontSize=11;fontColor=default;labelBackgroundColor=default;endArrow=none;endFill=0;" edge="1" parent="1" source="-hpoMCpXPhNOghXswdb6-99" target="-hpoMCpXPhNOghXswdb6-97">
          <mxGeometry relative="1" as="geometry" />
        </mxCell>
        <mxCell id="-hpoMCpXPhNOghXswdb6-103" style="edgeStyle=none;shape=link;rounded=0;orthogonalLoop=1;jettySize=auto;html=1;entryX=0;entryY=0.5;entryDx=0;entryDy=0;strokeColor=default;align=center;verticalAlign=middle;fontFamily=Helvetica;fontSize=11;fontColor=default;labelBackgroundColor=default;endArrow=none;endFill=0;" edge="1" parent="1" source="-hpoMCpXPhNOghXswdb6-99" target="-hpoMCpXPhNOghXswdb6-66">
          <mxGeometry relative="1" as="geometry" />
        </mxCell>
        <mxCell id="-hpoMCpXPhNOghXswdb6-105" style="edgeStyle=none;shape=connector;rounded=0;orthogonalLoop=1;jettySize=auto;html=1;exitX=0.5;exitY=0;exitDx=0;exitDy=0;strokeColor=default;align=center;verticalAlign=middle;fontFamily=Helvetica;fontSize=11;fontColor=default;labelBackgroundColor=default;endArrow=none;endFill=0;" edge="1" parent="1" source="-hpoMCpXPhNOghXswdb6-99" target="-hpoMCpXPhNOghXswdb6-42">
          <mxGeometry relative="1" as="geometry" />
        </mxCell>
        <mxCell id="-hpoMCpXPhNOghXswdb6-99" value="&lt;span style=&quot;font-size: 12px; background-color: rgb(251, 251, 251);&quot;&gt;Одржан лет&lt;/span&gt;" style="shape=ext;margin=3;double=1;whiteSpace=wrap;html=1;align=center;fontFamily=Helvetica;fontSize=11;fontColor=default;labelBackgroundColor=default;" vertex="1" parent="1">
          <mxGeometry x="290" y="340" width="100" height="40" as="geometry" />
        </mxCell>
        <mxCell id="-hpoMCpXPhNOghXswdb6-107" value="" style="edgeStyle=none;shape=connector;rounded=0;orthogonalLoop=1;jettySize=auto;html=1;strokeColor=default;align=center;verticalAlign=middle;fontFamily=Helvetica;fontSize=11;fontColor=default;labelBackgroundColor=default;endArrow=none;endFill=0;" edge="1" parent="1" source="-hpoMCpXPhNOghXswdb6-106" target="-hpoMCpXPhNOghXswdb6-99">
          <mxGeometry relative="1" as="geometry" />
        </mxCell>
        <mxCell id="-hpoMCpXPhNOghXswdb6-106" value="датум" style="ellipse;whiteSpace=wrap;html=1;align=center;fontFamily=Helvetica;fontSize=11;fontColor=default;labelBackgroundColor=default;" vertex="1" parent="1">
          <mxGeometry x="135" y="360" width="100" height="30" as="geometry" />
        </mxCell>
      </root>
    </mxGraphModel>
  </diagram>
</mxfile>
